ply
format ascii 1.0
element vertex 78
property double x
property double y
property double z
property uchar classification
end_header
0.166666667 0.1 0.15 0
0.05 1.55 2.225 2
0.05 3.05 5.225 1
0 4 0.3 0
0 5 1.2 2
0 6 2.1 2
0 7 3 2
0 8 4 2
0 9 5.1 1
1.2 0.05 0.425 0
1.05 1.55 2.525 2
1.05 3.05 5.825 1
1 4 0.5 0
1 5 1.6 2
1 6 2.5 2
1 7 3.5 2
1 8 4.6 2
1 9 5.8 1
2.1 0.25 0.725 0
2.05 1.55 2.925 2
2.05 3.05 6.125 1
2 4 0.8 0
2 5 2 2
2 6 3 2
2 7 4.1 2
2 8 5.3 1
2 9 6.6 1
3.05 3.05 7.225 1
3 4 1.1 2
3 5 2.5 2
3 6 3.6 2
3 7 4.8 2
3 8 6.1 1
3 9 7.5 1
4.05 3.05 8.425 1
4 4 1.4 2
4 5 3 2
4 6 4.2 2
4 7 5.5 1
4 8 7 1
4 9 8.5 1
5.1 3.1 9.25 1
5 4 1.8 2
5 5 3.6 2
5 6 4.9 2
5 7 6.3 1
5 8 8 1
5 9 9.6 1
10 0 0.2 0
10 2 1 2
10 4 2 2
10 6 3.2 2
10 8 4.5 2
11 0 0.4 0
11 2 1.4 2
11 4 2.5 2
11 6 3.8 2
11 8 5.2 1
12 0 0.7 0
12 2 1.9 2
12 4 3.1 2
12 6 4.5 2
12 8 6 1
13 0 1 2
13 2 2.5 2
13 4 3.8 2
13 6 5.3 1
13 8 6.9 1
14 0 1.4 2
14 2 3.2 2
14 4 4.6 2
14 6 6.2 1
14 8 7.9 1
15 0 1.9 2
15 2 4 2
15 4 5.5 1
15 6 7.2 1
15 8 9 1
