ply
format ascii 1.0
element vertex 48
property double x
property double y
property double z
property uchar classification
end_header
0.166666667 0.1 0.15 0
0.05 1.55 2.225 0
0.05 3.05 5.225 2
0 4 0.3 0
0 5 1.2 0
0 6 2.1 0
0 7 3 2
0 8 4 2
0 9 5.1 2
1.2 0.05 0.425 0
1.05 1.55 2.525 2
1.05 3.05 5.825 1
1 4 0.5 0
1 5 1.6 0
1 6 2.5 0
1 7 3.5 2
1 8 4.6 2
1 9 5.8 1
2.1 0.25 0.725 0
2.05 1.55 2.925 2
2.05 3.05 6.125 1
2 4 0.8 0
2 5 2 0
2 6 3 2
2 7 4.1 2
2 8 5.3 1
2 9 6.6 1
3.05 3.05 7.225 1
3 4 1.1 0
3 5 2.5 0
3 6 3.6 2
3 7 4.8 2
3 8 6.1 1
3 9 7.5 1
4.05 3.05 8.425 1
4 4 1.4 0
4 5 3 2
4 6 4.2 2
4 7 5.5 1
4 8 7 1
4 9 8.5 1
5.1 3.1 9.25 1
5 4 1.8 0
5 5 3.6 2
5 6 4.9 2
5 7 6.3 1
5 8 8 1
5 9 9.6 1
