solid 01_封闭地质块体
  facet normal 0 0 -1
    outer loop
      vertex 0 0 0
      vertex 0 80 0
      vertex 100 80 0
    endloop
  endfacet
  facet normal 0 0 -1
    outer loop
      vertex 0 0 0
      vertex 100 80 0
      vertex 100 0 0
    endloop
  endfacet
  facet normal 0 0 1
    outer loop
      vertex 0 0 30
      vertex 100 0 30
      vertex 100 80 30
    endloop
  endfacet
  facet normal 0 0 1
    outer loop
      vertex 0 0 30
      vertex 100 80 30
      vertex 0 80 30
    endloop
  endfacet
  facet normal 0 -1 0
    outer loop
      vertex 0 0 0
      vertex 100 0 0
      vertex 100 0 30
    endloop
  endfacet
  facet normal 0 -1 0
    outer loop
      vertex 0 0 0
      vertex 100 0 30
      vertex 0 0 30
    endloop
  endfacet
  facet normal 1 0 0
    outer loop
      vertex 100 0 0
      vertex 100 80 0
      vertex 100 80 30
    endloop
  endfacet
  facet normal 1 0 0
    outer loop
      vertex 100 0 0
      vertex 100 80 30
      vertex 100 0 30
    endloop
  endfacet
  facet normal 0 1 0
    outer loop
      vertex 100 80 0
      vertex 0 80 0
      vertex 0 80 30
    endloop
  endfacet
  facet normal 0 1 -0
    outer loop
      vertex 100 80 0
      vertex 0 80 30
      vertex 100 80 30
    endloop
  endfacet
  facet normal -1 0 0
    outer loop
      vertex 0 80 0
      vertex 0 0 0
      vertex 0 0 30
    endloop
  endfacet
  facet normal -1 0 0
    outer loop
      vertex 0 80 0
      vertex 0 0 30
      vertex 0 80 30
    endloop
  endfacet
endsolid 01_封闭地质块体
